<?xml version="1.0" encoding="utf-8"?>
<!-- Generator: Adobe Illustrator 15.0.0, SVG Export Plug-In . SVG Version: 6.00 Build 0)  -->
<!DOCTYPE svg PUBLIC "-//W3C//DTD SVG 1.1//EN" "http://www.w3.org/Graphics/SVG/1.1/DTD/svg11.dtd">
<svg version="1.1" id="Capa_1" xmlns="http://www.w3.org/2000/svg" xmlns:xlink="http://www.w3.org/1999/xlink" x="0px" y="0px"
	 width="40px" height="40px" viewBox="0 0 40 40" enable-background="new 0 0 40 40" xml:space="preserve">
<path fill="#FFFFFF" d="M32.367,9.922l-0.019-3.838c-0.24-2.155-2.028-3.834-4.19-3.834H18.53c-2.203,0-4.312,0.518-6.269,1.541
	c-4.672,2.44-7.578,7.292-7.578,12.663v19.752c0,0.347,0.194,0.672,0.501,0.824c0.126,0.067,0.263,0.099,0.399,0.099
	c0.192,0,0.387-0.064,0.545-0.19l8.057-6.281h4.345c4.023,0,7.844-1.793,10.479-4.926c2.171-2.579,3.365-5.872,3.365-9.278v-1.841"
	/>
<circle fill="#008E88" cx="26.154" cy="10.642" r="2.297"/>
<path fill="#E95D73" d="M33.732,9.302l-0.021-4.153C33.445,2.817,31.46,1,29.061,1H18.371c-2.445,0-4.786,0.56-6.959,1.668
	C6.225,5.308,3,10.558,3,16.37v21.375c0,0.376,0.216,0.727,0.556,0.893c0.14,0.072,0.292,0.105,0.443,0.105
	c0.214,0,0.429-0.068,0.605-0.205l8.944-6.797h4.823c4.467,0,8.708-1.941,11.634-5.331c2.409-2.791,3.735-6.354,3.735-10.04v-1.992
	h1.998c0.662,0,1.199-0.536,1.199-1.198C36.938,10.702,35.115,9.633,33.732,9.302z M31.746,6.052c0,0.551,0,3.318,0,3.869v0.363
	c0,0.005-0.002,0.011-0.002,0.015c-0.004,0.062-0.002,0.122,0.002,0.181v5.89c0,3.206-1.155,6.307-3.253,8.734
	c-2.545,2.949-6.234,4.638-10.121,4.638h-5.16c-0.217,0-0.431,0.071-0.604,0.206l-7.609,5.783v-9.295
	c0.977-0.021,2.223-0.15,3.585-0.538c2.853-0.813,6.784-2.952,9.31-8.529c0.252-0.552,0.006-1.203-0.547-1.455
	c-0.553-0.249-1.203-0.004-1.453,0.548c-3.031,6.687-8.213,7.729-10.896,7.786v-7.88c0-5.057,2.803-9.626,7.316-11.922
	c1.895-0.962,3.931-1.451,6.057-1.451h10.688c1.481,0,2.687,1.206,2.687,2.687v0.372h0.003V6.052z"/>
</svg>
